<svg style="position: absolute; width: 0; height: 0; overflow: hidden;" version="1.1" xmlns="http://www.w3.org/2000/svg" xmlns:xlink="http://www.w3.org/1999/xlink">
<defs>
<symbol id="icon-location" viewBox="0 0 1000 1000">
<title>location</title>
<path fill="#DBC4A9" d="M629 752c26.1-31.9 52.1-65.3 76.5-100.1 33.2-47.2 61.5-93.2 83.4-136.8 31.6-62.9 48.9-119.1 48.9-167.3C837.8 161.2 686.5 10 500 10S162.2 161.2 162.2 347.8c0 48.3 17.4 104.5 49 167.5 21.9 43.6 50.2 89.5 83.4 136.8 24.4 34.7 50.3 68.1 76.4 100-117.2 18.6-197.5 62.2-197.5 114.1C173.5 935.6 316.9 990 500 990s326.5-54.4 326.5-123.8c0-52-80.3-95.5-197.5-114.2zM504.4 171.1c92 0 166.6 74.6 166.6 166.6s-74.6 166.6-166.6 166.6-166.6-74.6-166.6-166.6 74.6-166.6 166.6-166.6zM500 967.5c-179.2 0-304-53.4-304-101.3 0-37.1 74.9-77.3 191.6-93.7 9.2 11 17.9 21.1 25.8 30 5.4 6.1 9.2 10.4 11.3 12.6l-.5-.6c41.6 48.2 110.7 48.2 151.9-.4 1.5-1.6 5.3-5.8 10.7-11.9 7.8-8.8 16.4-18.9 25.6-29.7C729.1 788.9 804 829.1 804 866.2c0 47.9-124.9 101.3-304 101.3z"/>
</symbol>
<symbol id="icon-material" viewBox="0 0 749 512">
<title>material</title>
<path fill="#DBC4A9" d="M141.82 228.672L368.574 111.94l135.07 48.75 38.018 78.27L276.89 387.896l-178.455-73.35"/><path fill="#FFF" d="M281.46 376.266l5.27-89.7 208.286-114.507L281.46 281.993M273.23 376.266l-5.267-89.7-121.574-50.71 126.84 46.138M264.21 372.873l9.065 8.673L104.66 312.24l14.697 1.776"/><g><path fill="#DBC4A9" d="M327.267 324.01l226.757-116.735 135.072 48.75 38.016 78.27L462.34 483.23l-178.456-73.348"/><path fill="#FFF" d="M466.908 471.604l5.27-89.702 208.286-114.507-213.556 109.937M458.68 471.604l-5.27-89.702-121.572-50.71 126.843 46.14M449.658 468.21l9.067 8.673-168.616-69.306 14.696 1.777"/></g><g><path fill="#DBC4A9" d="M284.17 167.292L510.927 50.558l135.07 48.75 38.018 78.27L419.24 326.515l-178.453-73.35"/><path fill="#FFF" d="M423.812 314.885l5.268-89.7 208.287-114.508-213.555 109.936M415.583 314.885l-5.27-89.7-121.572-50.71 126.843 46.138M406.56 311.492l9.068 8.673-168.616-69.305 14.696 1.776"/><path fill="none" stroke="#FFF" d="M283.404 168.81l-42.617 84.354M419.24 326.515L596.53 226.79"/></g>
</symbol>
<symbol id="icon-value" viewBox="0 0 345 412">
<title>value</title>
<path fill="#fff" d="M78.083 140.952h184.052V375.2H78.083z"/><path fill="#DBC4A9" d="M136.85 407.202C56.423 399.595 13.264 362.854 4.877 294.854c-1.715-13.905-.814-42.99 1.82-58.75 6.837-40.912 22.686-72.983 49.466-100.095 11.344-11.486 27.496-24.442 37.81-30.33 2.603-1.485 4.735-2.982 4.738-3.326.003-.343-13.492-15.245-29.99-33.113-16.497-17.868-29.995-33.287-29.995-34.265 0-3.47 6.163-12.22 10.858-15.417 12.71-8.656 26.643-7.76 41.642 2.675 18.41 12.81 23.656 12.23 46.448-5.128 23.005-17.52 30.99-17.49 51.677.197 4.812 4.115 11.49 8.975 14.837 10.8 5.335 2.91 7.08 3.24 14.14 2.674 6.3-.506 9.47-1.55 14.54-4.795 3.565-2.28 10.14-6.038 14.608-8.35 9.48-4.905 14.858-4.8 25.923.505 5.73 2.747 15.327 12.003 15.327 14.783 0 .512-13.64 14.984-30.313 32.16-16.67 17.177-30.458 31.623-30.637 32.104-.18.48 4.946 3.856 11.39 7.502C309.416 144.44 349.276 220.97 339.838 297.98c-8.094 66.04-54.317 102.01-140.49 109.325-17.387 1.476-46.312 1.43-62.5-.103zm49.375-56.56v-5.462l7.187-1.444c22.658-4.55 36.166-16.12 41.04-35.153 4.332-16.902.405-31.608-11.23-42.07-6.244-5.612-21.983-13.938-31.685-16.76l-5.312-1.544v-44.543l3.133 1.19c9.12 3.467 16.862 10.284 19.468 17.138.65 1.713 1.88 2.863 2.73 2.558.85-.306 6.744-1.898 13.1-3.537 13.025-3.36 12.89-3.09 6.84-13.662-7.83-13.674-22.236-24.778-38.084-29.352l-7.187-2.075v-18.572h-27.391l-.367 9.06-.367 9.062-6.937.863c-14.44 1.795-28.332 9.184-34.2 18.192-7.866 12.075-9.02 30.463-2.72 43.34 5.596 11.44 19.36 22.046 36.67 28.262l7.812 2.805v23.582c0 12.97-.31 23.582-.687 23.582-.378 0-2.487-.916-4.688-2.036-8.18-4.165-15.545-10.54-21.42-18.544l-6.045-8.234-3.268 2.144c-1.797 1.18-6.513 4.08-10.48 6.444-3.968 2.365-7.525 4.802-7.904 5.415-1.058 1.713 9.583 15.864 17.783 23.65 8.77 8.324 16.983 13.326 27.96 17.024l8.124 2.737.38 5.7.382 5.7h27.363v-5.462zm0-53.738V276.14l6.562 2.58c15.918 6.26 20.276 13.966 14.568 25.757-2.805 5.795-9.943 10.952-17.153 12.395l-3.977.795v-20.763zm-35-60.118c-3.094-1.623-7.313-4.728-9.375-6.9-3.204-3.37-3.75-4.916-3.75-10.608 0-4.892.664-7.407 2.5-9.47 2.96-3.323 11.34-7.387 15.312-7.426 2.793-.028 2.813.103 2.813 18.722 0 10.313-.422 18.724-.938 18.692-.515-.032-3.468-1.386-6.562-3.01z"/><path fill="#DBC4A9" d="M136.85 407.202C56.423 399.595 13.264 362.854 4.877 294.854c-1.715-13.905-.814-42.99 1.82-58.75 6.837-40.912 22.686-72.983 49.466-100.095 11.344-11.486 27.496-24.442 37.81-30.33 2.603-1.485 4.735-2.982 4.738-3.326.004-.343-13.492-15.245-29.99-33.113-16.497-17.868-29.995-33.287-29.995-34.265 0-3.47 6.163-12.22 10.858-15.417 12.71-8.656 26.643-7.76 41.642 2.675 18.41 12.81 23.656 12.23 46.448-5.128 23.005-17.52 30.99-17.49 51.677.197 4.812 4.115 11.49 8.975 14.837 10.8 5.335 2.91 7.08 3.24 14.14 2.674 6.3-.506 9.47-1.55 14.54-4.795 3.565-2.28 10.14-6.038 14.608-8.35 9.48-4.905 14.858-4.8 25.923.505 5.73 2.747 15.327 12.003 15.327 14.783 0 .512-13.64 14.984-30.313 32.16-16.67 17.177-30.458 31.623-30.637 32.104-.18.48 4.946 3.856 11.39 7.502C309.416 144.44 349.276 220.97 339.838 297.98c-8.094 66.04-54.317 102.01-140.49 109.325-17.387 1.476-46.312 1.43-62.5-.103zm49.375-56.56v-5.462l7.187-1.444c22.658-4.55 36.166-16.12 41.04-35.153 4.33-16.902.405-31.608-11.23-42.07-6.244-5.612-21.983-13.938-31.685-16.76l-5.312-1.544v-44.543l3.133 1.19c9.12 3.467 16.862 10.284 19.468 17.138.65 1.713 1.88 2.863 2.73 2.558.85-.306 6.744-1.898 13.1-3.537 13.025-3.36 12.89-3.09 6.84-13.662-7.83-13.674-22.236-24.778-38.084-29.352l-7.187-2.075v-18.572h-27.391l-.367 9.06-.367 9.062-6.937.863c-14.44 1.795-28.332 9.184-34.2 18.192-7.866 12.075-9.02 30.463-2.72 43.34 5.596 11.44 19.36 22.046 36.67 28.262l7.812 2.805v23.582c0 12.97-.31 23.582-.687 23.582-.378 0-2.487-.916-4.688-2.036-8.18-4.165-15.545-10.54-21.42-18.544l-6.045-8.234-3.268 2.144c-1.797 1.18-6.513 4.08-10.48 6.444-3.968 2.365-7.525 4.802-7.904 5.415-1.058 1.713 9.583 15.864 17.783 23.65 8.77 8.324 16.983 13.326 27.96 17.024l8.124 2.737.38 5.7.382 5.7h27.363v-5.462zm0-53.738V276.14l6.562 2.58c15.918 6.26 20.276 13.966 14.568 25.757-2.805 5.795-9.943 10.952-17.153 12.395l-3.977.795v-20.763zm-35-60.118c-3.094-1.623-7.313-4.728-9.375-6.9-3.204-3.37-3.75-4.916-3.75-10.608 0-4.892.664-7.407 2.5-9.47 2.96-3.323 11.34-7.387 15.312-7.426 2.793-.027 2.813.103 2.813 18.722 0 10.313-.422 18.724-.938 18.692-.515-.032-3.468-1.386-6.562-3.01z"/>
</symbol>
</defs>
</svg>